{"title":"Power Rangers Super Megaforce S21 EP8 Silver Lining, Part 2 WEB-","uid":9950696,"size":260906535,"categoryP":"video","categoryS":"tv_shows","magnet":"?xt=urn:btih:d19c592fff3f3880a96a4fb66121b40d2c67ae5e&amp;dn=Power+Rangers+Super+Megaforce+S21+EP8+Silver+Lining%2C+Part+2+WEB-&amp;tr=udp%3A%2F%2Ftracker.openbittorrent.com%3A80&amp;tr=udp%3A%2F%2Fopen.demonii.com%3A1337&amp;tr=udp%3A%2F%2Ftracker.coppersurfer.tk%3A6969&amp;tr=udp%3A%2F%2Fexodus.desync.com%3A6969","seeders":1,"leechers":0,"uploader":"jmanwf","files":-1,"time":1397395903,"description":"Orion, the mysterious Silver Ranger, explains his past to Gosei and the Rangers and \n\nhow he obtained the Silver Ranger Key. They discover that this new friend may have \n\nthe ability to tap into the legendary powers of all the Sixth Rangers that preceded \n\nhim. \n\n\nFormat : MPEG-4\nFormat profile : Base Media\nCodec ID : isom\nFile size : 249 MiB\nDuration : 23mn 35s\nOverall bit rate : 1 474 Kbps\nWriting application : Lavf54.59.106\n\nVideo\nID : 1\nFormat : AVC\nFormat/Info : Advanced Video Codec\nFormat profile : &lt;a class=&quot;__cf_email__&quot; href=&quot;/cdn-cgi/l/email-protection&quot; data-cfemail=&quot;ca82a3ada28a86f9e4fb&quot;&gt;[email&amp;#160;protected]&lt;/a&gt;&lt;script cf-hash='f9e31' type=&quot;text/javascript&quot;&gt;\n/* &lt;![CDATA[ */!function(){try{var t=&quot;currentScript&quot;in document?document.currentScript:function(){for(var t=document.getElementsByTagName(&quot;script&quot;),e=t.length;e--;)if(t[e].getAttribute(&quot;cf-hash&quot;))return t[e]}();if(t&amp;&amp;t.previousSibling){var e,r,n,i,c=t.previousSibling,a=c.getAttribute(&quot;data-cfemail&quot;);if(a){for(e=&quot;&quot;,r=parseInt(a.substr(0,2),16),n=2;a.length-n;n+=2)i=parseInt(a.substr(n,2),16)^r,e+=String.fromCharCode(i);e=document.createTextNode(e),c.parentNode.replaceChild(e,c)}}}catch(u){}}();/* ]]&gt; */&lt;/script&gt;\nFormat settings, CABAC : Yes\nFormat settings, ReFrames : 5 frames\nCodec ID : avc1\nCodec ID/Info : Advanced Video Coding\nDuration : 23mn 35s\nBit rate : 1 405 Kbps\nWidth : 1 280 pixels\nHeight : 720 pixels\nDisplay aspect ratio : 16:9\nFrame rate mode : Variable\nFrame rate : 23.976 fps\nMinimum frame rate : 2.646 fps\nMaximum frame rate : 58.824 fps\nColor space : YUV\nChroma subsampling : 4:2:0\nBit depth : 8 bits\nScan type : Progressive\nBits/(Pixel*Frame) : 0.064\nStream size : 237 MiB (95%)\n\nAudio\nID : 2\nFormat : AAC\nFormat/Info : Advanced Audio Codec\nFormat profile : HE-AAC / LC\nCodec ID : 40\nDuration : 23mn 35s\nBit rate mode : Constant\nBit rate : 64.0 Kbps\nChannel(s) : 2 channels\nChannel positions : Front: L R\nSampling rate : 48.0 KHz / 24.0 KHz\nCompression mode : Lossy\nStream size : 10.8 MiB (4%)","torrent":{"xt":"urn:btih:d19c592fff3f3880a96a4fb66121b40d2c67ae5e","amp;dn":"Power+Rangers+Super+Megaforce+S21+EP8+Silver+Lining%2C+Part+2+WEB-","amp;tr":["udp%3A%2F%2Ftracker.openbittorrent.com%3A80","udp%3A%2F%2Fopen.demonii.com%3A1337","udp%3A%2F%2Ftracker.coppersurfer.tk%3A6969","udp%3A%2F%2Fexodus.desync.com%3A6969"],"infoHash":"d19c592fff3f3880a96a4fb66121b40d2c67ae5e","infoHashBuffer":{"type":"Buffer","data":[209,156,89,47,255,63,56,128,169,106,79,182,97,33,180,13,44,103,174,94]},"announce":[],"urlList":[]}}